<?xml version="1.0" encoding="UTF-8"?>
<svg xmlns="http://www.w3.org/2000/svg" viewBox="0 0 200 240" width="200" height="240" aria-label="Yapi chef (placeholder)">
  <title>Yapi chef</title>
  <ellipse cx="100" cy="222" rx="56" ry="6" fill="#1B2D2A" opacity="0.10"/>
  <ellipse cx="100" cy="160" rx="62" ry="52" fill="#FAF6F0" stroke="#E5E1D8" stroke-width="2"/>
  <!-- Apron -->
  <path d="M 60 130 L 140 130 L 145 210 L 55 210 Z" fill="#FFFFFF" stroke="#E5E1D8" stroke-width="2"/>
  <rect x="92" y="130" width="16" height="10" fill="#E5E1D8"/>
  <rect x="72" y="200" width="14" height="22" rx="6" fill="#FAF6F0" stroke="#E5E1D8" stroke-width="2"/>
  <rect x="114" y="200" width="14" height="22" rx="6" fill="#FAF6F0" stroke="#E5E1D8" stroke-width="2"/>
  <rect x="90" y="80" width="20" height="60" rx="10" fill="#FAF6F0" stroke="#E5E1D8" stroke-width="2"/>
  <ellipse cx="100" cy="62" rx="34" ry="30" fill="#FAF6F0" stroke="#E5E1D8" stroke-width="2"/>
  <path d="M 78 42 L 72 22 L 88 38 Z" fill="#FAF6F0" stroke="#E5E1D8" stroke-width="2"/>
  <path d="M 122 42 L 128 22 L 112 38 Z" fill="#FAF6F0" stroke="#E5E1D8" stroke-width="2"/>
  <!-- Chef hat -->
  <ellipse cx="100" cy="22" rx="28" ry="14" fill="#FFFFFF" stroke="#E5E1D8" stroke-width="2"/>
  <rect x="74" y="22" width="52" height="14" fill="#FFFFFF" stroke="#E5E1D8" stroke-width="2"/>
  <ellipse cx="86" cy="14" rx="10" ry="8" fill="#FFFFFF" stroke="#E5E1D8" stroke-width="2"/>
  <ellipse cx="100" cy="8" rx="12" ry="10" fill="#FFFFFF" stroke="#E5E1D8" stroke-width="2"/>
  <ellipse cx="114" cy="14" rx="10" ry="8" fill="#FFFFFF" stroke="#E5E1D8" stroke-width="2"/>
  <!-- Face -->
  <path d="M 82 60 Q 88 54 94 60" stroke="#1B2D2A" stroke-width="2.5" stroke-linecap="round" fill="none"/>
  <path d="M 106 60 Q 112 54 118 60" stroke="#1B2D2A" stroke-width="2.5" stroke-linecap="round" fill="none"/>
  <circle cx="80" cy="72" r="4" fill="#D97757" opacity="0.4"/>
  <circle cx="120" cy="72" r="4" fill="#D97757" opacity="0.4"/>
  <path d="M 92 76 Q 100 82 108 76" stroke="#1B2D2A" stroke-width="2" stroke-linecap="round" fill="none"/>
</svg>
