<?xml version="1.0" encoding="UTF-8"?>
<svg xmlns="http://www.w3.org/2000/svg" viewBox="0 0 200 240" width="200" height="240" aria-label="Yapi eco warrior (placeholder)">
  <title>Yapi eco warrior</title>
  <ellipse cx="100" cy="222" rx="56" ry="6" fill="#1B2D2A" opacity="0.10"/>
  <!-- Cape -->
  <path d="M 38 80 Q 60 110 60 200 L 30 210 Q 20 130 38 80 Z" fill="#2D6A4F"/>
  <path d="M 162 80 Q 140 110 140 200 L 170 210 Q 180 130 162 80 Z" fill="#2D6A4F"/>
  <ellipse cx="100" cy="160" rx="62" ry="52" fill="#FAF6F0" stroke="#E5E1D8" stroke-width="2"/>
  <!-- Shirt with leaf emblem -->
  <path d="M 60 130 L 140 130 L 140 200 L 60 200 Z" fill="#52B788"/>
  <path d="M 100 150 Q 90 160 100 175 Q 110 160 100 150 Z" fill="#FAF6F0"/>
  <rect x="72" y="200" width="14" height="22" rx="6" fill="#FAF6F0" stroke="#E5E1D8" stroke-width="2"/>
  <rect x="114" y="200" width="14" height="22" rx="6" fill="#FAF6F0" stroke="#E5E1D8" stroke-width="2"/>
  <rect x="90" y="80" width="20" height="60" rx="10" fill="#FAF6F0" stroke="#E5E1D8" stroke-width="2"/>
  <ellipse cx="100" cy="62" rx="34" ry="30" fill="#FAF6F0" stroke="#E5E1D8" stroke-width="2"/>
  <path d="M 78 42 L 72 22 L 88 38 Z" fill="#FAF6F0" stroke="#E5E1D8" stroke-width="2"/>
  <path d="M 122 42 L 128 22 L 112 38 Z" fill="#FAF6F0" stroke="#E5E1D8" stroke-width="2"/>
  <!-- Determined eyes -->
  <path d="M 82 60 L 94 60" stroke="#1B2D2A" stroke-width="3" stroke-linecap="round"/>
  <path d="M 106 60 L 118 60" stroke="#1B2D2A" stroke-width="3" stroke-linecap="round"/>
  <!-- Confident smirk -->
  <path d="M 92 80 Q 100 86 110 80" stroke="#1B2D2A" stroke-width="2.5" stroke-linecap="round" fill="none"/>
  <!-- Headband -->
  <rect x="66" y="40" width="68" height="6" fill="#D97757"/>
</svg>
